<mxfile host="app.diagrams.net" agent="Mozilla/5.0 (Windows NT 10.0; Win64; x64) AppleWebKit/537.36 (KHTML, like Gecko) Chrome/130.0.0.0 Safari/537.36" version="24.8.2">
  <diagram name="PÃ¡gina-1" id="0xcyLAud2uggV2V_1AOS">
    <mxGraphModel dx="4400" dy="2170" grid="1" gridSize="10" guides="1" tooltips="1" connect="1" arrows="1" fold="1" page="1" pageScale="1" pageWidth="3300" pageHeight="4681" math="0" shadow="0">
      <root>
        <mxCell id="0" />
        <mxCell id="1" parent="0" />
        <mxCell id="MQBXzYV59qCEQz6MexTA-1" style="edgeStyle=orthogonalEdgeStyle;rounded=0;orthogonalLoop=1;jettySize=auto;html=1;exitX=0;exitY=0.5;exitDx=0;exitDy=0;entryX=0.5;entryY=0;entryDx=0;entryDy=0;" edge="1" parent="1" source="MQBXzYV59qCEQz6MexTA-3" target="MQBXzYV59qCEQz6MexTA-5">
          <mxGeometry relative="1" as="geometry" />
        </mxCell>
        <mxCell id="MQBXzYV59qCEQz6MexTA-2" style="edgeStyle=orthogonalEdgeStyle;rounded=0;orthogonalLoop=1;jettySize=auto;html=1;exitX=1;exitY=0.5;exitDx=0;exitDy=0;entryX=0.5;entryY=0;entryDx=0;entryDy=0;" edge="1" parent="1" source="MQBXzYV59qCEQz6MexTA-3" target="MQBXzYV59qCEQz6MexTA-6">
          <mxGeometry relative="1" as="geometry" />
        </mxCell>
        <mxCell id="MQBXzYV59qCEQz6MexTA-3" value="100" style="ellipse;whiteSpace=wrap;html=1;" vertex="1" parent="1">
          <mxGeometry x="400" y="200" width="80" height="80" as="geometry" />
        </mxCell>
        <mxCell id="MQBXzYV59qCEQz6MexTA-4" style="edgeStyle=orthogonalEdgeStyle;rounded=0;orthogonalLoop=1;jettySize=auto;html=1;exitX=0;exitY=0.5;exitDx=0;exitDy=0;entryX=0.5;entryY=0;entryDx=0;entryDy=0;" edge="1" parent="1" source="MQBXzYV59qCEQz6MexTA-5" target="MQBXzYV59qCEQz6MexTA-7">
          <mxGeometry relative="1" as="geometry" />
        </mxCell>
        <mxCell id="MQBXzYV59qCEQz6MexTA-5" value="90" style="ellipse;whiteSpace=wrap;html=1;" vertex="1" parent="1">
          <mxGeometry x="280" y="320" width="80" height="80" as="geometry" />
        </mxCell>
        <mxCell id="MQBXzYV59qCEQz6MexTA-6" value="110" style="ellipse;whiteSpace=wrap;html=1;" vertex="1" parent="1">
          <mxGeometry x="520" y="320" width="80" height="80" as="geometry" />
        </mxCell>
        <mxCell id="MQBXzYV59qCEQz6MexTA-7" value="80" style="ellipse;whiteSpace=wrap;html=1;fillColor=#f8cecc;strokeColor=#b85450;" vertex="1" parent="1">
          <mxGeometry x="160" y="440" width="80" height="80" as="geometry" />
        </mxCell>
        <mxCell id="MQBXzYV59qCEQz6MexTA-8" value="-1" style="text;html=1;align=center;verticalAlign=middle;resizable=0;points=[];autosize=1;strokeColor=none;fillColor=none;" vertex="1" parent="1">
          <mxGeometry x="485" y="178" width="30" height="30" as="geometry" />
        </mxCell>
        <mxCell id="MQBXzYV59qCEQz6MexTA-9" value="-1" style="text;html=1;align=center;verticalAlign=middle;resizable=0;points=[];autosize=1;strokeColor=none;fillColor=none;" vertex="1" parent="1">
          <mxGeometry x="350" y="300" width="30" height="30" as="geometry" />
        </mxCell>
        <mxCell id="MQBXzYV59qCEQz6MexTA-10" value="0" style="text;html=1;align=center;verticalAlign=middle;resizable=0;points=[];autosize=1;strokeColor=none;fillColor=none;" vertex="1" parent="1">
          <mxGeometry x="590" y="300" width="30" height="30" as="geometry" />
        </mxCell>
        <mxCell id="MQBXzYV59qCEQz6MexTA-11" style="edgeStyle=orthogonalEdgeStyle;rounded=0;orthogonalLoop=1;jettySize=auto;html=1;exitX=0;exitY=0.5;exitDx=0;exitDy=0;entryX=0.5;entryY=0;entryDx=0;entryDy=0;" edge="1" parent="1" source="MQBXzYV59qCEQz6MexTA-13" target="MQBXzYV59qCEQz6MexTA-14">
          <mxGeometry relative="1" as="geometry" />
        </mxCell>
        <mxCell id="MQBXzYV59qCEQz6MexTA-12" style="edgeStyle=orthogonalEdgeStyle;rounded=0;orthogonalLoop=1;jettySize=auto;html=1;exitX=1;exitY=0.5;exitDx=0;exitDy=0;entryX=0.5;entryY=0;entryDx=0;entryDy=0;" edge="1" parent="1" source="MQBXzYV59qCEQz6MexTA-13" target="MQBXzYV59qCEQz6MexTA-15">
          <mxGeometry relative="1" as="geometry" />
        </mxCell>
        <mxCell id="MQBXzYV59qCEQz6MexTA-13" value="100" style="ellipse;whiteSpace=wrap;html=1;" vertex="1" parent="1">
          <mxGeometry x="920" y="200" width="80" height="80" as="geometry" />
        </mxCell>
        <mxCell id="MQBXzYV59qCEQz6MexTA-14" value="90" style="ellipse;whiteSpace=wrap;html=1;" vertex="1" parent="1">
          <mxGeometry x="800" y="320" width="80" height="80" as="geometry" />
        </mxCell>
        <mxCell id="MQBXzYV59qCEQz6MexTA-15" value="110" style="ellipse;whiteSpace=wrap;html=1;" vertex="1" parent="1">
          <mxGeometry x="1040" y="320" width="80" height="80" as="geometry" />
        </mxCell>
        <mxCell id="MQBXzYV59qCEQz6MexTA-16" value="0" style="text;html=1;align=center;verticalAlign=middle;resizable=0;points=[];autosize=1;strokeColor=none;fillColor=none;" vertex="1" parent="1">
          <mxGeometry x="1005" y="178" width="30" height="30" as="geometry" />
        </mxCell>
        <mxCell id="MQBXzYV59qCEQz6MexTA-17" value="0" style="text;html=1;align=center;verticalAlign=middle;resizable=0;points=[];autosize=1;strokeColor=none;fillColor=none;" vertex="1" parent="1">
          <mxGeometry x="870" y="300" width="30" height="30" as="geometry" />
        </mxCell>
        <mxCell id="MQBXzYV59qCEQz6MexTA-18" value="0" style="text;html=1;align=center;verticalAlign=middle;resizable=0;points=[];autosize=1;strokeColor=none;fillColor=none;" vertex="1" parent="1">
          <mxGeometry x="1110" y="300" width="30" height="30" as="geometry" />
        </mxCell>
        <mxCell id="MQBXzYV59qCEQz6MexTA-19" style="edgeStyle=orthogonalEdgeStyle;rounded=0;orthogonalLoop=1;jettySize=auto;html=1;exitX=0;exitY=0.5;exitDx=0;exitDy=0;entryX=0.5;entryY=0;entryDx=0;entryDy=0;" edge="1" parent="1" source="MQBXzYV59qCEQz6MexTA-21" target="MQBXzYV59qCEQz6MexTA-23">
          <mxGeometry relative="1" as="geometry" />
        </mxCell>
        <mxCell id="MQBXzYV59qCEQz6MexTA-20" style="edgeStyle=orthogonalEdgeStyle;rounded=0;orthogonalLoop=1;jettySize=auto;html=1;exitX=1;exitY=0.5;exitDx=0;exitDy=0;entryX=0.5;entryY=0;entryDx=0;entryDy=0;" edge="1" parent="1" source="MQBXzYV59qCEQz6MexTA-21" target="MQBXzYV59qCEQz6MexTA-24">
          <mxGeometry relative="1" as="geometry" />
        </mxCell>
        <mxCell id="MQBXzYV59qCEQz6MexTA-21" value="100" style="ellipse;whiteSpace=wrap;html=1;" vertex="1" parent="1">
          <mxGeometry x="400" y="622" width="80" height="80" as="geometry" />
        </mxCell>
        <mxCell id="MQBXzYV59qCEQz6MexTA-22" style="edgeStyle=orthogonalEdgeStyle;rounded=0;orthogonalLoop=1;jettySize=auto;html=1;exitX=0;exitY=0.5;exitDx=0;exitDy=0;entryX=0.5;entryY=0;entryDx=0;entryDy=0;" edge="1" parent="1" source="MQBXzYV59qCEQz6MexTA-23" target="MQBXzYV59qCEQz6MexTA-25">
          <mxGeometry relative="1" as="geometry" />
        </mxCell>
        <mxCell id="MQBXzYV59qCEQz6MexTA-23" value="90" style="ellipse;whiteSpace=wrap;html=1;fillColor=#f8cecc;strokeColor=#b85450;" vertex="1" parent="1">
          <mxGeometry x="280" y="742" width="80" height="80" as="geometry" />
        </mxCell>
        <mxCell id="MQBXzYV59qCEQz6MexTA-24" value="110" style="ellipse;whiteSpace=wrap;html=1;" vertex="1" parent="1">
          <mxGeometry x="520" y="742" width="80" height="80" as="geometry" />
        </mxCell>
        <mxCell id="MQBXzYV59qCEQz6MexTA-25" value="80" style="ellipse;whiteSpace=wrap;html=1;" vertex="1" parent="1">
          <mxGeometry x="160" y="862" width="80" height="80" as="geometry" />
        </mxCell>
        <mxCell id="MQBXzYV59qCEQz6MexTA-26" value="-1" style="text;html=1;align=center;verticalAlign=middle;resizable=0;points=[];autosize=1;strokeColor=none;fillColor=none;" vertex="1" parent="1">
          <mxGeometry x="485" y="600" width="30" height="30" as="geometry" />
        </mxCell>
        <mxCell id="MQBXzYV59qCEQz6MexTA-27" value="-1" style="text;html=1;align=center;verticalAlign=middle;resizable=0;points=[];autosize=1;strokeColor=none;fillColor=none;" vertex="1" parent="1">
          <mxGeometry x="350" y="722" width="30" height="30" as="geometry" />
        </mxCell>
        <mxCell id="MQBXzYV59qCEQz6MexTA-28" value="0" style="text;html=1;align=center;verticalAlign=middle;resizable=0;points=[];autosize=1;strokeColor=none;fillColor=none;" vertex="1" parent="1">
          <mxGeometry x="590" y="722" width="30" height="30" as="geometry" />
        </mxCell>
        <mxCell id="MQBXzYV59qCEQz6MexTA-29" value="0" style="text;html=1;align=center;verticalAlign=middle;resizable=0;points=[];autosize=1;strokeColor=none;fillColor=none;" vertex="1" parent="1">
          <mxGeometry x="230" y="430" width="30" height="30" as="geometry" />
        </mxCell>
        <mxCell id="MQBXzYV59qCEQz6MexTA-30" value="0" style="text;html=1;align=center;verticalAlign=middle;resizable=0;points=[];autosize=1;strokeColor=none;fillColor=none;" vertex="1" parent="1">
          <mxGeometry x="230" y="850" width="30" height="30" as="geometry" />
        </mxCell>
        <mxCell id="MQBXzYV59qCEQz6MexTA-31" style="edgeStyle=orthogonalEdgeStyle;rounded=0;orthogonalLoop=1;jettySize=auto;html=1;exitX=0;exitY=0.5;exitDx=0;exitDy=0;entryX=0.5;entryY=0;entryDx=0;entryDy=0;" edge="1" parent="1" source="MQBXzYV59qCEQz6MexTA-33" target="MQBXzYV59qCEQz6MexTA-34">
          <mxGeometry relative="1" as="geometry" />
        </mxCell>
        <mxCell id="MQBXzYV59qCEQz6MexTA-32" style="edgeStyle=orthogonalEdgeStyle;rounded=0;orthogonalLoop=1;jettySize=auto;html=1;exitX=1;exitY=0.5;exitDx=0;exitDy=0;entryX=0.5;entryY=0;entryDx=0;entryDy=0;" edge="1" parent="1" source="MQBXzYV59qCEQz6MexTA-33" target="MQBXzYV59qCEQz6MexTA-35">
          <mxGeometry relative="1" as="geometry" />
        </mxCell>
        <mxCell id="MQBXzYV59qCEQz6MexTA-33" value="100" style="ellipse;whiteSpace=wrap;html=1;" vertex="1" parent="1">
          <mxGeometry x="920" y="622" width="80" height="80" as="geometry" />
        </mxCell>
        <mxCell id="MQBXzYV59qCEQz6MexTA-34" value="80" style="ellipse;whiteSpace=wrap;html=1;" vertex="1" parent="1">
          <mxGeometry x="800" y="742" width="80" height="80" as="geometry" />
        </mxCell>
        <mxCell id="MQBXzYV59qCEQz6MexTA-35" value="110" style="ellipse;whiteSpace=wrap;html=1;" vertex="1" parent="1">
          <mxGeometry x="1040" y="742" width="80" height="80" as="geometry" />
        </mxCell>
        <mxCell id="MQBXzYV59qCEQz6MexTA-36" value="0" style="text;html=1;align=center;verticalAlign=middle;resizable=0;points=[];autosize=1;strokeColor=none;fillColor=none;" vertex="1" parent="1">
          <mxGeometry x="1065" y="600" width="30" height="30" as="geometry" />
        </mxCell>
        <mxCell id="MQBXzYV59qCEQz6MexTA-37" value="0" style="text;html=1;align=center;verticalAlign=middle;resizable=0;points=[];autosize=1;strokeColor=none;fillColor=none;" vertex="1" parent="1">
          <mxGeometry x="870" y="722" width="30" height="30" as="geometry" />
        </mxCell>
        <mxCell id="MQBXzYV59qCEQz6MexTA-38" value="0" style="text;html=1;align=center;verticalAlign=middle;resizable=0;points=[];autosize=1;strokeColor=none;fillColor=none;" vertex="1" parent="1">
          <mxGeometry x="1110" y="722" width="30" height="30" as="geometry" />
        </mxCell>
        <mxCell id="MQBXzYV59qCEQz6MexTA-39" style="edgeStyle=orthogonalEdgeStyle;rounded=0;orthogonalLoop=1;jettySize=auto;html=1;exitX=0;exitY=0.5;exitDx=0;exitDy=0;entryX=0.5;entryY=0;entryDx=0;entryDy=0;" edge="1" parent="1" source="MQBXzYV59qCEQz6MexTA-41" target="MQBXzYV59qCEQz6MexTA-43">
          <mxGeometry relative="1" as="geometry" />
        </mxCell>
        <mxCell id="MQBXzYV59qCEQz6MexTA-40" style="edgeStyle=orthogonalEdgeStyle;rounded=0;orthogonalLoop=1;jettySize=auto;html=1;exitX=1;exitY=0.5;exitDx=0;exitDy=0;entryX=0.5;entryY=0;entryDx=0;entryDy=0;" edge="1" parent="1" source="MQBXzYV59qCEQz6MexTA-41" target="MQBXzYV59qCEQz6MexTA-44">
          <mxGeometry relative="1" as="geometry" />
        </mxCell>
        <mxCell id="MQBXzYV59qCEQz6MexTA-41" value="100" style="ellipse;whiteSpace=wrap;html=1;" vertex="1" parent="1">
          <mxGeometry x="400" y="1063" width="80" height="80" as="geometry" />
        </mxCell>
        <mxCell id="MQBXzYV59qCEQz6MexTA-42" style="edgeStyle=orthogonalEdgeStyle;rounded=0;orthogonalLoop=1;jettySize=auto;html=1;exitX=0;exitY=0.5;exitDx=0;exitDy=0;entryX=0.5;entryY=0;entryDx=0;entryDy=0;" edge="1" parent="1" source="MQBXzYV59qCEQz6MexTA-43" target="MQBXzYV59qCEQz6MexTA-46">
          <mxGeometry relative="1" as="geometry" />
        </mxCell>
        <mxCell id="MQBXzYV59qCEQz6MexTA-104" style="edgeStyle=orthogonalEdgeStyle;rounded=0;orthogonalLoop=1;jettySize=auto;html=1;exitX=1;exitY=0.5;exitDx=0;exitDy=0;" edge="1" parent="1" source="MQBXzYV59qCEQz6MexTA-43" target="MQBXzYV59qCEQz6MexTA-51">
          <mxGeometry relative="1" as="geometry" />
        </mxCell>
        <mxCell id="MQBXzYV59qCEQz6MexTA-43" value="90" style="ellipse;whiteSpace=wrap;html=1;" vertex="1" parent="1">
          <mxGeometry x="280" y="1183" width="80" height="80" as="geometry" />
        </mxCell>
        <mxCell id="MQBXzYV59qCEQz6MexTA-44" value="110" style="ellipse;whiteSpace=wrap;html=1;" vertex="1" parent="1">
          <mxGeometry x="520" y="1183" width="80" height="80" as="geometry" />
        </mxCell>
        <mxCell id="MQBXzYV59qCEQz6MexTA-46" value="80" style="ellipse;whiteSpace=wrap;html=1;fillColor=#f8cecc;strokeColor=#b85450;" vertex="1" parent="1">
          <mxGeometry x="160" y="1303" width="80" height="80" as="geometry" />
        </mxCell>
        <mxCell id="MQBXzYV59qCEQz6MexTA-47" value="-2" style="text;html=1;align=center;verticalAlign=middle;resizable=0;points=[];autosize=1;strokeColor=none;fillColor=none;" vertex="1" parent="1">
          <mxGeometry x="485" y="1041" width="30" height="30" as="geometry" />
        </mxCell>
        <mxCell id="MQBXzYV59qCEQz6MexTA-48" value="-2" style="text;html=1;align=center;verticalAlign=middle;resizable=0;points=[];autosize=1;strokeColor=none;fillColor=none;" vertex="1" parent="1">
          <mxGeometry x="350" y="1163" width="30" height="30" as="geometry" />
        </mxCell>
        <mxCell id="MQBXzYV59qCEQz6MexTA-49" value="0" style="text;html=1;align=center;verticalAlign=middle;resizable=0;points=[];autosize=1;strokeColor=none;fillColor=none;" vertex="1" parent="1">
          <mxGeometry x="590" y="1163" width="30" height="30" as="geometry" />
        </mxCell>
        <mxCell id="MQBXzYV59qCEQz6MexTA-50" value="-1" style="text;html=1;align=center;verticalAlign=middle;resizable=0;points=[];autosize=1;strokeColor=none;fillColor=none;" vertex="1" parent="1">
          <mxGeometry x="230" y="1291" width="30" height="30" as="geometry" />
        </mxCell>
        <mxCell id="MQBXzYV59qCEQz6MexTA-51" value="95" style="ellipse;whiteSpace=wrap;html=1;" vertex="1" parent="1">
          <mxGeometry x="400" y="1301" width="80" height="80" as="geometry" />
        </mxCell>
        <mxCell id="MQBXzYV59qCEQz6MexTA-52" style="edgeStyle=orthogonalEdgeStyle;rounded=0;orthogonalLoop=1;jettySize=auto;html=1;exitX=0;exitY=0.5;exitDx=0;exitDy=0;entryX=0.5;entryY=0;entryDx=0;entryDy=0;" edge="1" parent="1" source="MQBXzYV59qCEQz6MexTA-54" target="MQBXzYV59qCEQz6MexTA-56">
          <mxGeometry relative="1" as="geometry" />
        </mxCell>
        <mxCell id="MQBXzYV59qCEQz6MexTA-53" style="edgeStyle=orthogonalEdgeStyle;rounded=0;orthogonalLoop=1;jettySize=auto;html=1;exitX=1;exitY=0.5;exitDx=0;exitDy=0;entryX=0.5;entryY=0;entryDx=0;entryDy=0;" edge="1" parent="1" source="MQBXzYV59qCEQz6MexTA-54" target="MQBXzYV59qCEQz6MexTA-57">
          <mxGeometry relative="1" as="geometry" />
        </mxCell>
        <mxCell id="MQBXzYV59qCEQz6MexTA-54" value="100" style="ellipse;whiteSpace=wrap;html=1;" vertex="1" parent="1">
          <mxGeometry x="920" y="1063" width="80" height="80" as="geometry" />
        </mxCell>
        <mxCell id="MQBXzYV59qCEQz6MexTA-55" style="edgeStyle=orthogonalEdgeStyle;rounded=0;orthogonalLoop=1;jettySize=auto;html=1;entryX=0.5;entryY=0;entryDx=0;entryDy=0;" edge="1" parent="1" source="MQBXzYV59qCEQz6MexTA-56" target="MQBXzYV59qCEQz6MexTA-58">
          <mxGeometry relative="1" as="geometry" />
        </mxCell>
        <mxCell id="MQBXzYV59qCEQz6MexTA-56" value="90" style="ellipse;whiteSpace=wrap;html=1;" vertex="1" parent="1">
          <mxGeometry x="800" y="1183" width="80" height="80" as="geometry" />
        </mxCell>
        <mxCell id="MQBXzYV59qCEQz6MexTA-57" value="110" style="ellipse;whiteSpace=wrap;html=1;" vertex="1" parent="1">
          <mxGeometry x="1040" y="1183" width="80" height="80" as="geometry" />
        </mxCell>
        <mxCell id="MQBXzYV59qCEQz6MexTA-58" value="95" style="ellipse;whiteSpace=wrap;html=1;" vertex="1" parent="1">
          <mxGeometry x="900" y="1303" width="80" height="80" as="geometry" />
        </mxCell>
        <mxCell id="MQBXzYV59qCEQz6MexTA-59" value="-1" style="text;html=1;align=center;verticalAlign=middle;resizable=0;points=[];autosize=1;strokeColor=none;fillColor=none;" vertex="1" parent="1">
          <mxGeometry x="1005" y="1041" width="30" height="30" as="geometry" />
        </mxCell>
        <mxCell id="MQBXzYV59qCEQz6MexTA-60" value="1" style="text;html=1;align=center;verticalAlign=middle;resizable=0;points=[];autosize=1;strokeColor=none;fillColor=none;" vertex="1" parent="1">
          <mxGeometry x="870" y="1163" width="30" height="30" as="geometry" />
        </mxCell>
        <mxCell id="MQBXzYV59qCEQz6MexTA-61" value="0" style="text;html=1;align=center;verticalAlign=middle;resizable=0;points=[];autosize=1;strokeColor=none;fillColor=none;" vertex="1" parent="1">
          <mxGeometry x="1110" y="1163" width="30" height="30" as="geometry" />
        </mxCell>
        <mxCell id="MQBXzYV59qCEQz6MexTA-62" value="0" style="text;html=1;align=center;verticalAlign=middle;resizable=0;points=[];autosize=1;strokeColor=none;fillColor=none;" vertex="1" parent="1">
          <mxGeometry x="970" y="1291" width="30" height="30" as="geometry" />
        </mxCell>
        <mxCell id="MQBXzYV59qCEQz6MexTA-63" style="edgeStyle=orthogonalEdgeStyle;rounded=0;orthogonalLoop=1;jettySize=auto;html=1;exitX=0;exitY=0.5;exitDx=0;exitDy=0;entryX=0.5;entryY=0;entryDx=0;entryDy=0;" edge="1" source="MQBXzYV59qCEQz6MexTA-65" target="MQBXzYV59qCEQz6MexTA-67" parent="1">
          <mxGeometry relative="1" as="geometry" />
        </mxCell>
        <mxCell id="MQBXzYV59qCEQz6MexTA-64" style="edgeStyle=orthogonalEdgeStyle;rounded=0;orthogonalLoop=1;jettySize=auto;html=1;exitX=1;exitY=0.5;exitDx=0;exitDy=0;entryX=0.5;entryY=0;entryDx=0;entryDy=0;" edge="1" source="MQBXzYV59qCEQz6MexTA-65" target="MQBXzYV59qCEQz6MexTA-68" parent="1">
          <mxGeometry relative="1" as="geometry" />
        </mxCell>
        <mxCell id="MQBXzYV59qCEQz6MexTA-65" value="100" style="ellipse;whiteSpace=wrap;html=1;" vertex="1" parent="1">
          <mxGeometry x="400" y="1633" width="80" height="80" as="geometry" />
        </mxCell>
        <mxCell id="MQBXzYV59qCEQz6MexTA-66" style="edgeStyle=orthogonalEdgeStyle;rounded=0;orthogonalLoop=1;jettySize=auto;html=1;exitX=0;exitY=0.5;exitDx=0;exitDy=0;entryX=0.5;entryY=0;entryDx=0;entryDy=0;" edge="1" source="MQBXzYV59qCEQz6MexTA-67" target="MQBXzYV59qCEQz6MexTA-70" parent="1">
          <mxGeometry relative="1" as="geometry" />
        </mxCell>
        <mxCell id="MQBXzYV59qCEQz6MexTA-105" style="edgeStyle=orthogonalEdgeStyle;rounded=0;orthogonalLoop=1;jettySize=auto;html=1;" edge="1" parent="1" source="MQBXzYV59qCEQz6MexTA-67" target="MQBXzYV59qCEQz6MexTA-75">
          <mxGeometry relative="1" as="geometry" />
        </mxCell>
        <mxCell id="MQBXzYV59qCEQz6MexTA-67" value="90" style="ellipse;whiteSpace=wrap;html=1;fillColor=#f8cecc;strokeColor=#b85450;" vertex="1" parent="1">
          <mxGeometry x="280" y="1753" width="80" height="80" as="geometry" />
        </mxCell>
        <mxCell id="MQBXzYV59qCEQz6MexTA-68" value="110" style="ellipse;whiteSpace=wrap;html=1;" vertex="1" parent="1">
          <mxGeometry x="520" y="1753" width="80" height="80" as="geometry" />
        </mxCell>
        <mxCell id="MQBXzYV59qCEQz6MexTA-70" value="80" style="ellipse;whiteSpace=wrap;html=1;" vertex="1" parent="1">
          <mxGeometry x="160" y="1873" width="80" height="80" as="geometry" />
        </mxCell>
        <mxCell id="MQBXzYV59qCEQz6MexTA-71" value="-2" style="text;html=1;align=center;verticalAlign=middle;resizable=0;points=[];autosize=1;strokeColor=none;fillColor=none;" vertex="1" parent="1">
          <mxGeometry x="485" y="1611" width="30" height="30" as="geometry" />
        </mxCell>
        <mxCell id="MQBXzYV59qCEQz6MexTA-72" value="-2" style="text;html=1;align=center;verticalAlign=middle;resizable=0;points=[];autosize=1;strokeColor=none;fillColor=none;" vertex="1" parent="1">
          <mxGeometry x="350" y="1733" width="30" height="30" as="geometry" />
        </mxCell>
        <mxCell id="MQBXzYV59qCEQz6MexTA-73" value="0" style="text;html=1;align=center;verticalAlign=middle;resizable=0;points=[];autosize=1;strokeColor=none;fillColor=none;" vertex="1" parent="1">
          <mxGeometry x="590" y="1733" width="30" height="30" as="geometry" />
        </mxCell>
        <mxCell id="MQBXzYV59qCEQz6MexTA-74" value="-1" style="text;html=1;align=center;verticalAlign=middle;resizable=0;points=[];autosize=1;strokeColor=none;fillColor=none;" vertex="1" parent="1">
          <mxGeometry x="230" y="1861" width="30" height="30" as="geometry" />
        </mxCell>
        <mxCell id="MQBXzYV59qCEQz6MexTA-75" value="95" style="ellipse;whiteSpace=wrap;html=1;" vertex="1" parent="1">
          <mxGeometry x="400" y="1871" width="80" height="80" as="geometry" />
        </mxCell>
        <mxCell id="MQBXzYV59qCEQz6MexTA-76" style="edgeStyle=orthogonalEdgeStyle;rounded=0;orthogonalLoop=1;jettySize=auto;html=1;exitX=0;exitY=0.5;exitDx=0;exitDy=0;entryX=0.5;entryY=0;entryDx=0;entryDy=0;" edge="1" source="MQBXzYV59qCEQz6MexTA-78" target="MQBXzYV59qCEQz6MexTA-80" parent="1">
          <mxGeometry relative="1" as="geometry" />
        </mxCell>
        <mxCell id="MQBXzYV59qCEQz6MexTA-77" style="edgeStyle=orthogonalEdgeStyle;rounded=0;orthogonalLoop=1;jettySize=auto;html=1;exitX=1;exitY=0.5;exitDx=0;exitDy=0;entryX=0.5;entryY=0;entryDx=0;entryDy=0;" edge="1" source="MQBXzYV59qCEQz6MexTA-78" target="MQBXzYV59qCEQz6MexTA-81" parent="1">
          <mxGeometry relative="1" as="geometry" />
        </mxCell>
        <mxCell id="MQBXzYV59qCEQz6MexTA-78" value="100" style="ellipse;whiteSpace=wrap;html=1;" vertex="1" parent="1">
          <mxGeometry x="1060" y="1633" width="80" height="80" as="geometry" />
        </mxCell>
        <mxCell id="MQBXzYV59qCEQz6MexTA-79" style="edgeStyle=orthogonalEdgeStyle;rounded=0;orthogonalLoop=1;jettySize=auto;html=1;exitX=0;exitY=0.5;exitDx=0;exitDy=0;entryX=0.5;entryY=0;entryDx=0;entryDy=0;" edge="1" source="MQBXzYV59qCEQz6MexTA-80" target="MQBXzYV59qCEQz6MexTA-83" parent="1">
          <mxGeometry relative="1" as="geometry" />
        </mxCell>
        <mxCell id="MQBXzYV59qCEQz6MexTA-80" value="95" style="ellipse;whiteSpace=wrap;html=1;" vertex="1" parent="1">
          <mxGeometry x="940" y="1753" width="80" height="80" as="geometry" />
        </mxCell>
        <mxCell id="MQBXzYV59qCEQz6MexTA-81" value="110" style="ellipse;whiteSpace=wrap;html=1;" vertex="1" parent="1">
          <mxGeometry x="1180" y="1753" width="80" height="80" as="geometry" />
        </mxCell>
        <mxCell id="MQBXzYV59qCEQz6MexTA-83" value="80" style="ellipse;whiteSpace=wrap;html=1;" vertex="1" parent="1">
          <mxGeometry x="820" y="1873" width="80" height="80" as="geometry" />
        </mxCell>
        <mxCell id="MQBXzYV59qCEQz6MexTA-84" value="-1" style="text;html=1;align=center;verticalAlign=middle;resizable=0;points=[];autosize=1;strokeColor=none;fillColor=none;" vertex="1" parent="1">
          <mxGeometry x="1145" y="1611" width="30" height="30" as="geometry" />
        </mxCell>
        <mxCell id="MQBXzYV59qCEQz6MexTA-85" value="-1" style="text;html=1;align=center;verticalAlign=middle;resizable=0;points=[];autosize=1;strokeColor=none;fillColor=none;" vertex="1" parent="1">
          <mxGeometry x="1010" y="1733" width="30" height="30" as="geometry" />
        </mxCell>
        <mxCell id="MQBXzYV59qCEQz6MexTA-86" value="0" style="text;html=1;align=center;verticalAlign=middle;resizable=0;points=[];autosize=1;strokeColor=none;fillColor=none;" vertex="1" parent="1">
          <mxGeometry x="1250" y="1733" width="30" height="30" as="geometry" />
        </mxCell>
        <mxCell id="MQBXzYV59qCEQz6MexTA-87" value="0" style="text;html=1;align=center;verticalAlign=middle;resizable=0;points=[];autosize=1;strokeColor=none;fillColor=none;" vertex="1" parent="1">
          <mxGeometry x="890" y="1861" width="30" height="30" as="geometry" />
        </mxCell>
        <mxCell id="MQBXzYV59qCEQz6MexTA-89" style="edgeStyle=orthogonalEdgeStyle;rounded=0;orthogonalLoop=1;jettySize=auto;html=1;exitX=0;exitY=0.5;exitDx=0;exitDy=0;entryX=0.5;entryY=0;entryDx=0;entryDy=0;" edge="1" source="MQBXzYV59qCEQz6MexTA-91" target="MQBXzYV59qCEQz6MexTA-93" parent="1">
          <mxGeometry relative="1" as="geometry" />
        </mxCell>
        <mxCell id="MQBXzYV59qCEQz6MexTA-90" style="edgeStyle=orthogonalEdgeStyle;rounded=0;orthogonalLoop=1;jettySize=auto;html=1;exitX=1;exitY=0.5;exitDx=0;exitDy=0;entryX=0.5;entryY=0;entryDx=0;entryDy=0;" edge="1" source="MQBXzYV59qCEQz6MexTA-91" target="MQBXzYV59qCEQz6MexTA-94" parent="1">
          <mxGeometry relative="1" as="geometry" />
        </mxCell>
        <mxCell id="MQBXzYV59qCEQz6MexTA-91" value="100" style="ellipse;whiteSpace=wrap;html=1;" vertex="1" parent="1">
          <mxGeometry x="400" y="2183" width="80" height="80" as="geometry" />
        </mxCell>
        <mxCell id="MQBXzYV59qCEQz6MexTA-92" style="edgeStyle=orthogonalEdgeStyle;rounded=0;orthogonalLoop=1;jettySize=auto;html=1;exitX=0;exitY=0.5;exitDx=0;exitDy=0;entryX=0.5;entryY=0;entryDx=0;entryDy=0;" edge="1" source="MQBXzYV59qCEQz6MexTA-93" target="MQBXzYV59qCEQz6MexTA-96" parent="1">
          <mxGeometry relative="1" as="geometry" />
        </mxCell>
        <mxCell id="MQBXzYV59qCEQz6MexTA-106" style="edgeStyle=orthogonalEdgeStyle;rounded=0;orthogonalLoop=1;jettySize=auto;html=1;entryX=0.5;entryY=0;entryDx=0;entryDy=0;" edge="1" parent="1" source="MQBXzYV59qCEQz6MexTA-93" target="MQBXzYV59qCEQz6MexTA-101">
          <mxGeometry relative="1" as="geometry" />
        </mxCell>
        <mxCell id="MQBXzYV59qCEQz6MexTA-93" value="90" style="ellipse;whiteSpace=wrap;html=1;" vertex="1" parent="1">
          <mxGeometry x="280" y="2303" width="80" height="80" as="geometry" />
        </mxCell>
        <mxCell id="MQBXzYV59qCEQz6MexTA-103" style="edgeStyle=orthogonalEdgeStyle;rounded=0;orthogonalLoop=1;jettySize=auto;html=1;entryX=0.5;entryY=0;entryDx=0;entryDy=0;" edge="1" parent="1" source="MQBXzYV59qCEQz6MexTA-94" target="MQBXzYV59qCEQz6MexTA-102">
          <mxGeometry relative="1" as="geometry">
            <mxPoint x="680" y="2420" as="targetPoint" />
          </mxGeometry>
        </mxCell>
        <mxCell id="MQBXzYV59qCEQz6MexTA-94" value="110" style="ellipse;whiteSpace=wrap;html=1;" vertex="1" parent="1">
          <mxGeometry x="520" y="2303" width="80" height="80" as="geometry" />
        </mxCell>
        <mxCell id="MQBXzYV59qCEQz6MexTA-96" value="80" style="ellipse;whiteSpace=wrap;html=1;fillColor=#f8cecc;strokeColor=#b85450;" vertex="1" parent="1">
          <mxGeometry x="160" y="2423" width="80" height="80" as="geometry" />
        </mxCell>
        <mxCell id="MQBXzYV59qCEQz6MexTA-97" value="-2" style="text;html=1;align=center;verticalAlign=middle;resizable=0;points=[];autosize=1;strokeColor=none;fillColor=none;" vertex="1" parent="1">
          <mxGeometry x="485" y="2161" width="30" height="30" as="geometry" />
        </mxCell>
        <mxCell id="MQBXzYV59qCEQz6MexTA-98" value="-2" style="text;html=1;align=center;verticalAlign=middle;resizable=0;points=[];autosize=1;strokeColor=none;fillColor=none;" vertex="1" parent="1">
          <mxGeometry x="350" y="2283" width="30" height="30" as="geometry" />
        </mxCell>
        <mxCell id="MQBXzYV59qCEQz6MexTA-99" value="0" style="text;html=1;align=center;verticalAlign=middle;resizable=0;points=[];autosize=1;strokeColor=none;fillColor=none;" vertex="1" parent="1">
          <mxGeometry x="590" y="2283" width="30" height="30" as="geometry" />
        </mxCell>
        <mxCell id="MQBXzYV59qCEQz6MexTA-100" value="-1" style="text;html=1;align=center;verticalAlign=middle;resizable=0;points=[];autosize=1;strokeColor=none;fillColor=none;" vertex="1" parent="1">
          <mxGeometry x="230" y="2411" width="30" height="30" as="geometry" />
        </mxCell>
        <mxCell id="MQBXzYV59qCEQz6MexTA-108" style="edgeStyle=orthogonalEdgeStyle;rounded=0;orthogonalLoop=1;jettySize=auto;html=1;entryX=0.5;entryY=0;entryDx=0;entryDy=0;" edge="1" parent="1" source="MQBXzYV59qCEQz6MexTA-101" target="MQBXzYV59qCEQz6MexTA-107">
          <mxGeometry relative="1" as="geometry" />
        </mxCell>
        <mxCell id="MQBXzYV59qCEQz6MexTA-101" value="95" style="ellipse;whiteSpace=wrap;html=1;" vertex="1" parent="1">
          <mxGeometry x="400" y="2421" width="80" height="80" as="geometry" />
        </mxCell>
        <mxCell id="MQBXzYV59qCEQz6MexTA-102" value="120" style="ellipse;whiteSpace=wrap;html=1;" vertex="1" parent="1">
          <mxGeometry x="640" y="2423" width="80" height="80" as="geometry" />
        </mxCell>
        <mxCell id="MQBXzYV59qCEQz6MexTA-107" value="95" style="ellipse;whiteSpace=wrap;html=1;" vertex="1" parent="1">
          <mxGeometry x="520" y="2541" width="80" height="80" as="geometry" />
        </mxCell>
        <mxCell id="MQBXzYV59qCEQz6MexTA-109" style="edgeStyle=orthogonalEdgeStyle;rounded=0;orthogonalLoop=1;jettySize=auto;html=1;exitX=0;exitY=0.5;exitDx=0;exitDy=0;entryX=0.5;entryY=0;entryDx=0;entryDy=0;" edge="1" source="MQBXzYV59qCEQz6MexTA-111" target="MQBXzYV59qCEQz6MexTA-114" parent="1">
          <mxGeometry relative="1" as="geometry" />
        </mxCell>
        <mxCell id="MQBXzYV59qCEQz6MexTA-110" style="edgeStyle=orthogonalEdgeStyle;rounded=0;orthogonalLoop=1;jettySize=auto;html=1;exitX=1;exitY=0.5;exitDx=0;exitDy=0;entryX=0.5;entryY=0;entryDx=0;entryDy=0;" edge="1" source="MQBXzYV59qCEQz6MexTA-111" target="MQBXzYV59qCEQz6MexTA-116" parent="1">
          <mxGeometry relative="1" as="geometry" />
        </mxCell>
        <mxCell id="MQBXzYV59qCEQz6MexTA-111" value="100" style="ellipse;whiteSpace=wrap;html=1;" vertex="1" parent="1">
          <mxGeometry x="1000" y="2183" width="80" height="80" as="geometry" />
        </mxCell>
        <mxCell id="MQBXzYV59qCEQz6MexTA-113" style="edgeStyle=orthogonalEdgeStyle;rounded=0;orthogonalLoop=1;jettySize=auto;html=1;entryX=0.5;entryY=0;entryDx=0;entryDy=0;" edge="1" source="MQBXzYV59qCEQz6MexTA-114" target="MQBXzYV59qCEQz6MexTA-123" parent="1">
          <mxGeometry relative="1" as="geometry" />
        </mxCell>
        <mxCell id="MQBXzYV59qCEQz6MexTA-114" value="90" style="ellipse;whiteSpace=wrap;html=1;" vertex="1" parent="1">
          <mxGeometry x="880" y="2303" width="80" height="80" as="geometry" />
        </mxCell>
        <mxCell id="MQBXzYV59qCEQz6MexTA-115" style="edgeStyle=orthogonalEdgeStyle;rounded=0;orthogonalLoop=1;jettySize=auto;html=1;entryX=0.5;entryY=0;entryDx=0;entryDy=0;" edge="1" source="MQBXzYV59qCEQz6MexTA-116" target="MQBXzYV59qCEQz6MexTA-124" parent="1">
          <mxGeometry relative="1" as="geometry">
            <mxPoint x="1280" y="2420" as="targetPoint" />
          </mxGeometry>
        </mxCell>
        <mxCell id="MQBXzYV59qCEQz6MexTA-116" value="110" style="ellipse;whiteSpace=wrap;html=1;" vertex="1" parent="1">
          <mxGeometry x="1120" y="2303" width="80" height="80" as="geometry" />
        </mxCell>
        <mxCell id="MQBXzYV59qCEQz6MexTA-118" value="-1" style="text;html=1;align=center;verticalAlign=middle;resizable=0;points=[];autosize=1;strokeColor=none;fillColor=none;" vertex="1" parent="1">
          <mxGeometry x="1085" y="2161" width="30" height="30" as="geometry" />
        </mxCell>
        <mxCell id="MQBXzYV59qCEQz6MexTA-119" value="-2" style="text;html=1;align=center;verticalAlign=middle;resizable=0;points=[];autosize=1;strokeColor=none;fillColor=none;" vertex="1" parent="1">
          <mxGeometry x="950" y="2283" width="30" height="30" as="geometry" />
        </mxCell>
        <mxCell id="MQBXzYV59qCEQz6MexTA-122" style="edgeStyle=orthogonalEdgeStyle;rounded=0;orthogonalLoop=1;jettySize=auto;html=1;entryX=0.5;entryY=0;entryDx=0;entryDy=0;" edge="1" source="MQBXzYV59qCEQz6MexTA-123" target="MQBXzYV59qCEQz6MexTA-125" parent="1">
          <mxGeometry relative="1" as="geometry" />
        </mxCell>
        <mxCell id="MQBXzYV59qCEQz6MexTA-123" value="95" style="ellipse;whiteSpace=wrap;html=1;" vertex="1" parent="1">
          <mxGeometry x="1000" y="2421" width="80" height="80" as="geometry" />
        </mxCell>
        <mxCell id="MQBXzYV59qCEQz6MexTA-124" value="120" style="ellipse;whiteSpace=wrap;html=1;" vertex="1" parent="1">
          <mxGeometry x="1240" y="2423" width="80" height="80" as="geometry" />
        </mxCell>
        <mxCell id="MQBXzYV59qCEQz6MexTA-125" value="96" style="ellipse;whiteSpace=wrap;html=1;" vertex="1" parent="1">
          <mxGeometry x="1120" y="2541" width="80" height="80" as="geometry" />
        </mxCell>
        <mxCell id="MQBXzYV59qCEQz6MexTA-126" value="" style="html=1;shadow=0;dashed=0;align=center;verticalAlign=middle;shape=mxgraph.arrows2.jumpInArrow;dy=15;dx=38;arrowHead=55;flipV=0;flipH=1;" vertex="1" parent="1">
          <mxGeometry x="1065" y="2383" width="70" height="60" as="geometry" />
        </mxCell>
        <mxCell id="MQBXzYV59qCEQz6MexTA-127" style="edgeStyle=orthogonalEdgeStyle;rounded=0;orthogonalLoop=1;jettySize=auto;html=1;exitX=0;exitY=0.5;exitDx=0;exitDy=0;entryX=0.5;entryY=0;entryDx=0;entryDy=0;" edge="1" source="MQBXzYV59qCEQz6MexTA-129" target="MQBXzYV59qCEQz6MexTA-131" parent="1">
          <mxGeometry relative="1" as="geometry" />
        </mxCell>
        <mxCell id="MQBXzYV59qCEQz6MexTA-128" style="edgeStyle=orthogonalEdgeStyle;rounded=0;orthogonalLoop=1;jettySize=auto;html=1;exitX=1;exitY=0.5;exitDx=0;exitDy=0;entryX=0.5;entryY=0;entryDx=0;entryDy=0;" edge="1" source="MQBXzYV59qCEQz6MexTA-129" target="MQBXzYV59qCEQz6MexTA-133" parent="1">
          <mxGeometry relative="1" as="geometry" />
        </mxCell>
        <mxCell id="MQBXzYV59qCEQz6MexTA-129" value="100" style="ellipse;whiteSpace=wrap;html=1;" vertex="1" parent="1">
          <mxGeometry x="1720" y="2183" width="80" height="80" as="geometry" />
        </mxCell>
        <mxCell id="MQBXzYV59qCEQz6MexTA-130" style="edgeStyle=orthogonalEdgeStyle;rounded=0;orthogonalLoop=1;jettySize=auto;html=1;entryX=0.5;entryY=0;entryDx=0;entryDy=0;" edge="1" source="MQBXzYV59qCEQz6MexTA-131" target="MQBXzYV59qCEQz6MexTA-138" parent="1">
          <mxGeometry relative="1" as="geometry" />
        </mxCell>
        <mxCell id="MQBXzYV59qCEQz6MexTA-142" style="edgeStyle=orthogonalEdgeStyle;rounded=0;orthogonalLoop=1;jettySize=auto;html=1;exitX=0;exitY=0.5;exitDx=0;exitDy=0;" edge="1" parent="1" source="MQBXzYV59qCEQz6MexTA-131" target="MQBXzYV59qCEQz6MexTA-140">
          <mxGeometry relative="1" as="geometry" />
        </mxCell>
        <mxCell id="MQBXzYV59qCEQz6MexTA-131" value="90" style="ellipse;whiteSpace=wrap;html=1;" vertex="1" parent="1">
          <mxGeometry x="1600" y="2303" width="80" height="80" as="geometry" />
        </mxCell>
        <mxCell id="MQBXzYV59qCEQz6MexTA-132" style="edgeStyle=orthogonalEdgeStyle;rounded=0;orthogonalLoop=1;jettySize=auto;html=1;entryX=0.5;entryY=0;entryDx=0;entryDy=0;" edge="1" source="MQBXzYV59qCEQz6MexTA-133" target="MQBXzYV59qCEQz6MexTA-139" parent="1">
          <mxGeometry relative="1" as="geometry">
            <mxPoint x="2000" y="2420" as="targetPoint" />
          </mxGeometry>
        </mxCell>
        <mxCell id="MQBXzYV59qCEQz6MexTA-133" value="110" style="ellipse;whiteSpace=wrap;html=1;" vertex="1" parent="1">
          <mxGeometry x="1840" y="2303" width="80" height="80" as="geometry" />
        </mxCell>
        <mxCell id="MQBXzYV59qCEQz6MexTA-134" value="0" style="text;html=1;align=center;verticalAlign=middle;resizable=0;points=[];autosize=1;strokeColor=none;fillColor=none;" vertex="1" parent="1">
          <mxGeometry x="1805" y="2161" width="30" height="30" as="geometry" />
        </mxCell>
        <mxCell id="MQBXzYV59qCEQz6MexTA-135" value="0" style="text;html=1;align=center;verticalAlign=middle;resizable=0;points=[];autosize=1;strokeColor=none;fillColor=none;" vertex="1" parent="1">
          <mxGeometry x="1670" y="2283" width="30" height="30" as="geometry" />
        </mxCell>
        <mxCell id="MQBXzYV59qCEQz6MexTA-136" value="0" style="text;html=1;align=center;verticalAlign=middle;resizable=0;points=[];autosize=1;strokeColor=none;fillColor=none;" vertex="1" parent="1">
          <mxGeometry x="1910" y="2283" width="30" height="30" as="geometry" />
        </mxCell>
        <mxCell id="MQBXzYV59qCEQz6MexTA-138" value="96" style="ellipse;whiteSpace=wrap;html=1;" vertex="1" parent="1">
          <mxGeometry x="1720" y="2421" width="80" height="80" as="geometry" />
        </mxCell>
        <mxCell id="MQBXzYV59qCEQz6MexTA-139" value="120" style="ellipse;whiteSpace=wrap;html=1;" vertex="1" parent="1">
          <mxGeometry x="1960" y="2423" width="80" height="80" as="geometry" />
        </mxCell>
        <mxCell id="MQBXzYV59qCEQz6MexTA-140" value="95" style="ellipse;whiteSpace=wrap;html=1;" vertex="1" parent="1">
          <mxGeometry x="1470" y="2421" width="80" height="80" as="geometry" />
        </mxCell>
        <mxCell id="MQBXzYV59qCEQz6MexTA-143" value="0" style="text;html=1;align=center;verticalAlign=middle;resizable=0;points=[];autosize=1;strokeColor=none;fillColor=none;" vertex="1" parent="1">
          <mxGeometry x="1720" y="2403" width="30" height="30" as="geometry" />
        </mxCell>
        <mxCell id="MQBXzYV59qCEQz6MexTA-144" value="0" style="text;html=1;align=center;verticalAlign=middle;resizable=0;points=[];autosize=1;strokeColor=none;fillColor=none;" vertex="1" parent="1">
          <mxGeometry x="1530" y="2403" width="30" height="30" as="geometry" />
        </mxCell>
        <mxCell id="MQBXzYV59qCEQz6MexTA-145" value="0" style="text;html=1;align=center;verticalAlign=middle;resizable=0;points=[];autosize=1;strokeColor=none;fillColor=none;" vertex="1" parent="1">
          <mxGeometry x="2010" y="2403" width="30" height="30" as="geometry" />
        </mxCell>
        <mxCell id="MQBXzYV59qCEQz6MexTA-146" value="0" style="text;html=1;align=center;verticalAlign=middle;resizable=0;points=[];autosize=1;strokeColor=none;fillColor=none;" vertex="1" parent="1">
          <mxGeometry x="1310" y="2423" width="30" height="30" as="geometry" />
        </mxCell>
        <mxCell id="MQBXzYV59qCEQz6MexTA-147" value="0" style="text;html=1;align=center;verticalAlign=middle;resizable=0;points=[];autosize=1;strokeColor=none;fillColor=none;" vertex="1" parent="1">
          <mxGeometry x="1190" y="2533" width="30" height="30" as="geometry" />
        </mxCell>
        <mxCell id="MQBXzYV59qCEQz6MexTA-148" value="-1" style="text;html=1;align=center;verticalAlign=middle;resizable=0;points=[];autosize=1;strokeColor=none;fillColor=none;" vertex="1" parent="1">
          <mxGeometry x="980" y="2413" width="30" height="30" as="geometry" />
        </mxCell>
        <mxCell id="MQBXzYV59qCEQz6MexTA-149" value="-1" style="text;html=1;align=center;verticalAlign=middle;resizable=0;points=[];autosize=1;strokeColor=none;fillColor=none;" vertex="1" parent="1">
          <mxGeometry x="1170" y="2283" width="30" height="30" as="geometry" />
        </mxCell>
      </root>
    </mxGraphModel>
  </diagram>
</mxfile>
